<svg width="40" height="40" viewBox="0 0 40 40" fill="none" xmlns="http://www.w3.org/2000/svg">
<path d="M40 20C40 16.0444 38.827 12.1776 36.6294 8.8886C34.4318 5.59962 31.3082 3.03617 27.6537 1.52242C23.9991 0.00866564 19.9778 -0.387401 16.0982 0.384303C12.2186 1.15601 8.65492 3.06082 5.85787 5.85787C3.06082 8.65492 1.15601 12.2186 0.384303 16.0982C-0.387401 19.9778 0.00866564 23.9991 1.52242 27.6537C3.03617 31.3082 5.59962 34.4318 8.8886 36.6294C12.1776 38.827 16.0444 40 20 40C25.3025 39.9942 30.3862 37.8852 34.1357 34.1357C37.8852 30.3862 39.9942 25.3025 40 20ZM5.20715 17.8857C5.71621 14.3257 7.492 11.0686 10.2087 8.71221C12.9253 6.3558 16.4007 5.05809 19.9969 5.05722C23.5932 5.05636 27.0691 6.35238 29.7869 8.70749C32.5047 11.0626 34.2821 14.3188 34.7929 17.8786C34.4412 18.1223 34.0345 18.2747 33.6093 18.3221C33.1841 18.3695 32.7538 18.3103 32.3571 18.15L26.6214 15.8071C22.3792 14.0643 17.6208 14.0643 13.3786 15.8071L7.64286 18.15C7.24706 18.3127 6.81684 18.3737 6.39141 18.3275C5.96598 18.2814 5.55886 18.1295 5.20715 17.8857ZM16.1643 30.5214L15.7571 34.3286C13.5236 33.6632 11.4757 32.4867 9.77585 30.8923C8.07603 29.2979 6.77102 27.3294 5.96429 25.1429L10.1643 24.6286C10.9665 24.5299 11.7807 24.6135 12.5462 24.8732C13.3116 25.1328 14.0086 25.5618 14.5853 26.1282C15.162 26.6945 15.6034 27.3837 15.8768 28.1444C16.1502 28.905 16.2485 29.7175 16.1643 30.5214ZM20 23.6643C19.5289 23.6636 19.0685 23.5232 18.6772 23.2608C18.2858 22.9985 17.981 22.626 17.8014 22.1905C17.6218 21.7549 17.5753 21.2759 17.6679 20.8139C17.7605 20.352 17.988 19.9278 18.3217 19.5952C18.6553 19.2625 19.0801 19.0363 19.5423 18.9451C20.0046 18.8539 20.4835 18.9018 20.9185 19.0827C21.3535 19.2637 21.7251 19.5695 21.9862 19.9617C22.2474 20.3538 22.3864 20.8146 22.3857 21.2857C22.3843 21.9174 22.1323 22.5226 21.685 22.9686C21.2377 23.4146 20.6316 23.6648 20 23.6643ZM24.2429 34.3286L23.8357 30.5214C23.7515 29.7175 23.8498 28.905 24.1232 28.1444C24.3966 27.3837 24.838 26.6945 25.4147 26.1282C25.9914 25.5618 26.6884 25.1328 27.4539 24.8732C28.2193 24.6135 29.0335 24.5299 29.8357 24.6286L34.0357 25.1429C33.229 27.3294 31.924 29.2979 30.2242 30.8923C28.5243 32.4867 26.4765 33.6632 24.2429 34.3286Z" fill="url(#paint0_linear_914_1284)"/>
<defs>
<linearGradient id="paint0_linear_914_1284" x1="3.48889" y1="7.58271" x2="35.4868" y2="40.5893" gradientUnits="userSpaceOnUse">
<stop stop-color="white" stop-opacity="0.6"/>
<stop offset="1" stop-color="white" stop-opacity="0.3"/>
</linearGradient>
</defs>
</svg>
