<svg preserveAspectRatio="none" width="100%" height="100%" overflow="visible" style="display: block;" viewBox="0 0 21 25" fill="none" xmlns="http://www.w3.org/2000/svg">
<g id="Icon">
<path id="Vector" fill-rule="evenodd" clip-rule="evenodd" d="M20.3488 21.8023C20.3488 22.65 20.0116 23.464 19.4128 24.064C18.8128 24.6628 17.9988 25 17.1512 25H3.19767C2.35 25 1.53605 24.6628 0.936046 24.064C0.337209 23.464 0 22.65 0 21.8023V3.19767C0 2.35 0.337209 1.53605 0.936046 0.936047C1.53605 0.337209 2.35 0 3.19767 0H13.1814C13.7209 0 14.2384 0.213953 14.6198 0.596512L19.7523 5.72907C20.1349 6.11046 20.3488 6.62791 20.3488 7.16744V21.8023ZM18.6047 21.8023V7.16744C18.6047 7.0907 18.5744 7.01628 18.5198 6.96163L13.3872 1.82907C13.3326 1.77442 13.2581 1.74419 13.1814 1.74419H3.19767C2.81163 1.74419 2.44302 1.89767 2.16977 2.16977C1.89767 2.44302 1.74419 2.81163 1.74419 3.19767V21.8023C1.74419 22.1884 1.89767 22.557 2.16977 22.8302C2.44302 23.1023 2.81163 23.2558 3.19767 23.2558H17.1512C17.5372 23.2558 17.9058 23.1023 18.1791 22.8302C18.4512 22.557 18.6047 22.1884 18.6047 21.8023Z" fill="var(--fill-0, black)"/>
<path id="Vector_2" fill-rule="evenodd" clip-rule="evenodd" d="M12.7912 1.45335C12.7912 0.971951 13.1818 0.581253 13.6632 0.581253C14.1446 0.581253 14.5353 0.971951 14.5353 1.45335V5.52311C14.5353 5.68358 14.6656 5.81381 14.826 5.81381H18.8958C19.3772 5.81381 19.7679 6.20451 19.7679 6.6859C19.7679 7.1673 19.3772 7.558 18.8958 7.558H14.826C13.7016 7.558 12.7912 6.64753 12.7912 5.52311V1.45335Z" fill="var(--fill-0, black)"/>
<path id="Vector_3" fill-rule="evenodd" clip-rule="evenodd" d="M5.52292 11.6279C5.04152 11.6279 4.65082 11.2372 4.65082 10.7558C4.65082 10.2744 5.04152 9.88369 5.52292 9.88369H14.8252C15.3066 9.88369 15.6973 10.2744 15.6973 10.7558C15.6973 11.2372 15.3066 11.6279 14.8252 11.6279H5.52292Z" fill="var(--fill-0, black)"/>
<path id="Vector_4" fill-rule="evenodd" clip-rule="evenodd" d="M5.52292 15.6976C5.04152 15.6976 4.65082 15.3069 4.65082 14.8256C4.65082 14.3442 5.04152 13.9535 5.52292 13.9535H14.8252C15.3066 13.9535 15.6973 14.3442 15.6973 14.8256C15.6973 15.3069 15.3066 15.6976 14.8252 15.6976H5.52292Z" fill="var(--fill-0, black)"/>
<path id="Vector_5" fill-rule="evenodd" clip-rule="evenodd" d="M5.52292 19.7674C5.04152 19.7674 4.65082 19.3767 4.65082 18.8953C4.65082 18.4139 5.04152 18.0232 5.52292 18.0232H10.7555C11.2369 18.0232 11.6276 18.4139 11.6276 18.8953C11.6276 19.3767 11.2369 19.7674 10.7555 19.7674H5.52292Z" fill="var(--fill-0, black)"/>
</g>
</svg>
