<svg preserveAspectRatio="none" width="100%" height="100%" overflow="visible" style="display: block;" viewBox="0 0 25 25" fill="none" xmlns="http://www.w3.org/2000/svg">
<g id="Help">
<path id="Vector" d="M12.5 0C10.0277 0 7.61099 0.733112 5.55538 2.10663C3.49976 3.48015 1.89761 5.43238 0.951511 7.71646C0.00541607 10.0005 -0.242126 12.5139 0.24019 14.9386C0.722505 17.3634 1.91301 19.5907 3.66117 21.3388C5.40933 23.087 7.63661 24.2775 10.0614 24.7598C12.4861 25.2421 14.9995 24.9946 17.2835 24.0485C19.5676 23.1024 21.5199 21.5002 22.8934 19.4446C24.2669 17.389 25 14.9723 25 12.5C24.9962 9.18596 23.678 6.00873 21.3347 3.66535C18.9913 1.32197 15.814 0.00379083 12.5 0ZM12.5 22.9167C10.4398 22.9167 8.42583 22.3057 6.71282 21.1611C4.9998 20.0165 3.66467 18.3897 2.87626 16.4863C2.08785 14.5829 1.88156 12.4884 2.28349 10.4678C2.68542 8.44717 3.67751 6.5911 5.13431 5.1343C6.59111 3.67751 8.44718 2.68542 10.4678 2.28349C12.4884 1.88156 14.5829 2.08784 16.4863 2.87625C18.3897 3.66467 20.0165 4.9998 21.1611 6.71281C22.3057 8.42582 22.9167 10.4398 22.9167 12.5C22.9136 15.2617 21.8151 17.9095 19.8623 19.8623C17.9095 21.8151 15.2617 22.9136 12.5 22.9167Z" fill="var(--fill-0, black)"/>
<path id="Vector_2" d="M12.561 4.56489C11.707 4.57093 10.8713 4.81262 10.1459 5.26333C9.42045 5.71403 8.83353 6.35625 8.4498 7.11921C8.32286 7.36459 8.2986 7.65035 8.38235 7.91361C8.4661 8.17688 8.65101 8.3961 8.89639 8.52304C9.14177 8.64997 9.42753 8.67424 9.69079 8.59048C9.95406 8.50673 10.1733 8.32183 10.3002 8.07645C10.5122 7.65577 10.8345 7.30064 11.2327 7.04906C11.631 6.79748 12.0901 6.65893 12.561 6.64822C13.2353 6.64899 13.8817 6.91718 14.3585 7.39395C14.8352 7.87073 15.1034 8.51714 15.1042 9.1914C15.1042 10.6796 13.794 11.4583 12.5 11.4583C12.2237 11.4583 11.9588 11.5681 11.7635 11.7634C11.5681 11.9588 11.4584 12.2237 11.4583 12.5V16.1458C11.4583 16.4221 11.5681 16.687 11.7634 16.8824C11.9588 17.0777 12.2237 17.1875 12.5 17.1875C12.7763 17.1875 13.0412 17.0777 13.2366 16.8824C13.4319 16.687 13.5417 16.4221 13.5417 16.1458V13.4399C14.555 13.2802 15.4784 12.765 16.1464 11.9866C16.8145 11.2081 17.1835 10.2172 17.1875 9.1914C17.1862 7.96478 16.6984 6.78877 15.831 5.92142C14.9637 5.05406 13.7877 4.5662 12.561 4.56489Z" fill="var(--fill-0, black)"/>
<path id="Vector_3" d="M12.5613 18.658C12.3674 18.658 12.1779 18.7155 12.0166 18.8233C11.8554 18.931 11.7298 19.0841 11.6556 19.2633C11.5814 19.4424 11.562 19.6395 11.5998 19.8297C11.6376 20.0199 11.731 20.1946 11.8681 20.3317C12.0052 20.4688 12.1799 20.5621 12.3701 20.6C12.5602 20.6378 12.7574 20.6184 12.9365 20.5442C13.1156 20.47 13.2688 20.3443 13.3765 20.1831C13.4842 20.0219 13.5417 19.8324 13.5417 19.6385C13.541 19.3787 13.4374 19.1297 13.2537 18.946C13.07 18.7623 12.8211 18.6588 12.5613 18.658Z" fill="var(--fill-0, black)"/>
</g>
</svg>
