<svg width="25" height="29" viewBox="0 0 25 29" fill="none" xmlns="http://www.w3.org/2000/svg">
<rect y="17" width="25" height="12" rx="3" fill="white"/>
<path d="M4.15625 26V20.3633H5.33594V25.0273H7.84375V26H4.15625ZM8.91406 26V20.3633H10.0938V26H8.91406ZM12.9375 26L11.0586 20.3633H12.3828L13.6289 24.6875H13.6992L14.9414 20.3633H16.2695L14.3906 26H12.9375ZM17.2344 26V20.3633H20.9688V21.3359H18.4141V22.6953H20.8242V23.6016H18.4141V25.0273H20.9688V26H17.2344Z" fill="#F29915"/>
<path d="M8.83921 12.1489C8.65883 12.1483 8.48536 12.0794 8.35368 11.9561C7.70164 11.3371 7.18241 10.5918 6.8276 9.76567C6.47278 8.93955 6.2898 8.04987 6.2898 7.15077C6.2898 6.25168 6.47278 5.36199 6.8276 4.53587C7.18241 3.70975 7.70164 2.96449 8.35368 2.34544C8.49419 2.23151 8.6727 2.17515 8.85316 2.18776C9.03361 2.20036 9.20256 2.281 9.32585 2.41336C9.44915 2.54573 9.51762 2.71996 9.51741 2.90085C9.5172 3.08175 9.44834 3.25582 9.32474 3.3879C8.81719 3.87441 8.4133 4.45857 8.13739 5.10524C7.86147 5.7519 7.71924 6.44771 7.71924 7.15077C7.71924 7.85384 7.86147 8.54964 8.13739 9.19631C8.4133 9.84297 8.81719 10.4271 9.32474 10.9136C9.42914 11.0114 9.50179 11.1382 9.53326 11.2777C9.56474 11.4172 9.5536 11.563 9.50128 11.6961C9.44896 11.8292 9.35788 11.9435 9.23984 12.0242C9.12179 12.105 8.98222 12.1484 8.83921 12.1489ZM5.98314 14.0625C6.11613 13.9287 6.19077 13.7477 6.19077 13.5591C6.19077 13.3704 6.11613 13.1895 5.98314 13.0557C5.18433 12.2936 4.54845 11.3773 4.11399 10.3624C3.67953 9.34739 3.45552 8.25482 3.45552 7.15077C3.45552 6.04673 3.67953 4.95416 4.11399 3.93919C4.54845 2.92423 5.18433 2.00796 5.98314 1.24585C6.12138 1.11235 6.20093 0.929396 6.20427 0.737244C6.20762 0.545091 6.1345 0.359479 6.00099 0.22124C5.86749 0.0830003 5.68454 0.00345768 5.49238 0.000110081C5.30023 -0.00323752 5.11462 0.0698841 4.97638 0.203389C4.03582 1.09963 3.28704 2.17751 2.77542 3.37172C2.2638 4.56593 2 5.85159 2 7.15077C2 8.44996 2.2638 9.73562 2.77542 10.9298C3.28704 12.124 4.03582 13.2019 4.97638 14.0982C5.04508 14.1628 5.12592 14.2132 5.21421 14.2464C5.3025 14.2796 5.3965 14.295 5.49077 14.2917C5.58505 14.2884 5.67773 14.2664 5.76347 14.2271C5.84921 14.1877 5.92629 14.1318 5.99028 14.0625H5.98314ZM15.6438 11.9561C16.2958 11.3371 16.8151 10.5918 17.1699 9.76567C17.5247 8.93955 17.7077 8.04987 17.7077 7.15077C17.7077 6.25168 17.5247 5.36199 17.1699 4.53587C16.8151 3.70975 16.2958 2.96449 15.6438 2.34544C15.5753 2.28121 15.4949 2.23109 15.4071 2.19795C15.3193 2.1648 15.2258 2.14927 15.132 2.15226C15.0382 2.15524 14.9458 2.17668 14.8603 2.21533C14.7748 2.25399 14.6977 2.30912 14.6335 2.37757C14.5692 2.44602 14.5191 2.52645 14.486 2.61427C14.4528 2.70209 14.4373 2.79557 14.4403 2.88939C14.4433 2.98321 14.4647 3.07552 14.5034 3.16106C14.542 3.24659 14.5971 3.32367 14.6656 3.3879C15.1759 3.87282 15.5822 4.45647 15.8599 5.10335C16.1375 5.75023 16.2807 6.44682 16.2807 7.15077C16.2807 7.85472 16.1375 8.55132 15.8599 9.1982C15.5822 9.84508 15.1759 10.4287 14.6656 10.9136C14.5278 11.0426 14.4466 11.221 14.4399 11.4097C14.4332 11.5983 14.5015 11.782 14.6299 11.9204C14.6973 11.9931 14.7791 12.0509 14.87 12.0903C14.961 12.1296 15.0592 12.1496 15.1583 12.1489C15.3386 12.1483 15.5121 12.0794 15.6438 11.9561ZM19.014 14.0982C19.9573 13.2035 20.7085 12.1262 21.2219 10.9317C21.7352 9.73731 22 8.45085 22 7.15077C22 5.8507 21.7352 4.56424 21.2219 3.36981C20.7085 2.17539 19.9573 1.09802 19.014 0.203389C18.8734 0.0894549 18.6949 0.0330983 18.5145 0.0457058C18.334 0.0583133 18.1651 0.138945 18.0418 0.27131C17.9185 0.403675 17.85 0.577906 17.8502 0.758801C17.8504 0.939696 17.9193 1.11377 18.0429 1.24585C18.8417 2.00796 19.4776 2.92423 19.912 3.93919C20.3465 4.95416 20.5705 6.04673 20.5705 7.15077C20.5705 8.25482 20.3465 9.34739 19.912 10.3624C19.4776 11.3773 18.8417 12.2936 18.0429 13.0557C17.9051 13.1847 17.8239 13.363 17.8172 13.5517C17.8105 13.7404 17.8788 13.924 18.0072 14.0625C18.0738 14.1342 18.1544 14.1916 18.2441 14.2309C18.3337 14.2702 18.4305 14.2906 18.5284 14.2909C18.7088 14.2903 18.8823 14.2214 19.014 14.0982ZM13.4303 7.15077C13.4303 6.86834 13.3466 6.59224 13.1897 6.3574C13.0328 6.12256 12.8097 5.93953 12.5488 5.83144C12.2879 5.72336 12.0007 5.69508 11.7237 5.75018C11.4467 5.80528 11.1922 5.94129 10.9925 6.141C10.7928 6.34072 10.6568 6.59517 10.6017 6.87218C10.5466 7.14919 10.5749 7.43632 10.683 7.69726C10.7911 7.9582 10.9741 8.18123 11.2089 8.33814C11.4438 8.49505 11.7199 8.57881 12.0023 8.57881C12.381 8.57881 12.7443 8.42835 13.0121 8.16055C13.2799 7.89274 13.4303 7.52951 13.4303 7.15077Z" fill="white"/>
</svg>
