<svg width="23" height="23" viewBox="0 0 23 23" fill="none" xmlns="http://www.w3.org/2000/svg">
<g clip-path="url(#clip0_857_2023)">
<path d="M10.5273 23C8.54657 23 6.93359 21.3881 6.93359 19.4062C6.93359 19.0095 7.25559 18.6875 7.65234 18.6875C8.0491 18.6875 8.37109 19.0095 8.37109 19.4062C8.37109 20.5956 9.33902 21.5625 10.5273 21.5625C11.7157 21.5625 12.6836 20.5956 12.6836 19.4062C12.6836 19.0095 13.0056 18.6875 13.4023 18.6875C13.7991 18.6875 14.1211 19.0095 14.1211 19.4062C14.1211 21.3881 12.5083 23 10.5273 23Z" fill="black"/>
<path d="M18.4329 20.125H2.62038C1.69563 20.125 0.943359 19.3727 0.943359 18.448C0.943359 17.9572 1.15709 17.4925 1.5298 17.1733C1.55384 17.1523 1.57964 17.1331 1.60648 17.1158C3.01328 15.8881 3.81836 14.122 3.81836 12.257V9.58327C3.81836 5.88424 6.82848 2.875 10.5266 2.875C14.2247 2.875 17.2351 5.88424 17.2351 9.58327V12.257C17.2351 14.123 18.041 15.8901 19.4498 17.1187C19.4756 17.1359 19.5005 17.1542 19.5235 17.1744C19.8964 17.4925 20.1101 17.9572 20.1101 18.448C20.1101 19.3727 19.3578 20.125 18.4329 20.125ZM5.25586 9.58327V12.257C5.25586 14.5724 4.24091 16.7632 2.47386 18.2667C2.45947 18.2783 2.44701 18.2888 2.43157 18.2993C2.40578 18.332 2.38086 18.3818 2.38086 18.448C2.38086 18.5782 2.49018 18.6875 2.62038 18.6875H18.4329C18.5633 18.6875 18.6726 18.5782 18.6726 18.448C18.6726 18.3808 18.6477 18.332 18.6208 18.2993C18.6064 18.2888 18.594 18.2783 18.5796 18.2667C16.8115 16.7622 15.7976 14.5724 15.7976 12.257V9.58327C15.7976 6.67669 13.4324 4.3125 10.5266 4.3125C7.6211 4.3125 5.25586 6.67669 5.25586 9.58327Z" fill="black"/>
</g>
<defs>
<clipPath id="clip0_857_2023">
<rect width="23" height="23" fill="white"/>
</clipPath>
</defs>
</svg>
