<svg width="25" height="25" viewBox="0 0 25 25" fill="none" xmlns="http://www.w3.org/2000/svg">
<path d="M16.0694 8.03576C15.5784 8.03576 15.1766 7.63399 15.1766 7.14293V6.25011C15.1766 4.76802 13.9802 3.57164 12.4982 3.57164C11.0161 3.57164 9.81968 4.76802 9.81968 6.25011V7.14293C9.81968 7.63399 9.41791 8.03576 8.92686 8.03576C8.43581 8.03576 8.03404 7.63399 8.03404 7.14293V6.25011C8.03404 3.78592 10.034 1.78599 12.4982 1.78599C14.9623 1.78599 16.9623 3.78592 16.9623 6.25011V7.14293C16.9623 7.63399 16.5605 8.03576 16.0694 8.03576Z" fill="#BFBFBF"/>
<path d="M12.4982 15.178C10.034 15.178 8.03404 13.178 8.03404 10.7138C8.03404 10.2228 8.43581 9.82101 8.92686 9.82101C9.41791 9.82101 9.81968 10.2228 9.81968 10.7138C9.81968 12.1959 11.0161 13.3923 12.4982 13.3923C13.9802 13.3923 15.1766 12.1959 15.1766 10.7138C15.1766 10.2228 15.5784 9.82101 16.0694 9.82101C16.5605 9.82101 16.9623 10.2228 16.9623 10.7138C16.9623 13.178 14.9623 15.178 12.4982 15.178Z" fill="#BFBFBF"/>
<path d="M16.9632 23.2137H8.03495C5.07971 23.2137 2.67801 20.812 2.67801 17.8568L3.57976 8.83924C3.61548 7.39287 4.80293 6.24112 6.24931 6.25005H18.7488C20.2309 6.25005 21.4273 7.44643 21.4273 8.92852L22.3201 17.7675C22.3558 20.7406 19.9809 23.178 17.0168 23.2137C16.9989 23.2137 16.981 23.2137 16.9632 23.2137ZM6.24931 8.0357C5.75825 8.0357 5.35648 8.43747 5.35648 8.92852L4.46366 17.946C4.5083 19.8835 6.09753 21.437 8.03495 21.428H16.9632C18.9363 21.428 20.5345 19.8299 20.5345 17.8568L19.6417 9.0178C19.6774 8.5089 19.2845 8.07141 18.7756 8.0357C18.7756 8.0357 18.7667 8.0357 18.7488 8.0357H6.24931Z" fill="#BFBFBF"/>
</svg>
