<svg width="27" height="29" viewBox="0 0 27 29" fill="none" xmlns="http://www.w3.org/2000/svg">
<rect y="17" width="27" height="12" rx="3" fill="white"/>
<path d="M6.48047 26.1445C5.92318 26.1445 5.44141 26.0247 5.03516 25.7852C4.62891 25.543 4.3151 25.2005 4.09375 24.7578C3.875 24.3151 3.76562 23.7904 3.76562 23.1836V23.1758C3.76562 22.5664 3.8763 22.0417 4.09766 21.6016C4.32161 21.1589 4.63672 20.8177 5.04297 20.5781C5.44922 20.3385 5.92839 20.2188 6.48047 20.2188C7.03516 20.2188 7.51432 20.3385 7.91797 20.5781C8.32422 20.8177 8.63802 21.1589 8.85938 21.6016C9.08073 22.0443 9.19141 22.569 9.19141 23.1758V23.1836C9.19141 23.7904 9.08073 24.3151 8.85938 24.7578C8.64062 25.2005 8.32812 25.543 7.92188 25.7852C7.51562 26.0247 7.03516 26.1445 6.48047 26.1445ZM6.48047 25.1445C6.78516 25.1445 7.05078 25.0638 7.27734 24.9023C7.50391 24.7409 7.67839 24.513 7.80078 24.2188C7.92578 23.9245 7.98828 23.5794 7.98828 23.1836V23.1758C7.98828 22.7773 7.92578 22.4323 7.80078 22.1406C7.67839 21.8464 7.50391 21.6198 7.27734 21.4609C7.05078 21.2995 6.78516 21.2188 6.48047 21.2188C6.17578 21.2188 5.91016 21.2995 5.68359 21.4609C5.45703 21.6198 5.28125 21.8464 5.15625 22.1406C5.03125 22.4323 4.96875 22.7773 4.96875 23.1758V23.1836C4.96875 23.5794 5.02995 23.9245 5.15234 24.2188C5.27734 24.513 5.45182 24.7409 5.67578 24.9023C5.90234 25.0638 6.17057 25.1445 6.48047 25.1445ZM7.91016 26.5586L6.09766 24.1445H7.19531L9.00781 26.5586H7.91016ZM12.6719 26.1445C12.1901 26.1445 11.7721 26.0573 11.418 25.8828C11.0664 25.7083 10.793 25.4648 10.5977 25.1523C10.4049 24.8398 10.3086 24.474 10.3086 24.0547V20.3633H11.4883V23.9492C11.4883 24.1914 11.5339 24.4023 11.625 24.582C11.7188 24.7591 11.8529 24.8971 12.0273 24.9961C12.2044 25.0951 12.4193 25.1445 12.6719 25.1445C12.9245 25.1445 13.138 25.0951 13.3125 24.9961C13.4896 24.8971 13.6237 24.7591 13.7148 24.582C13.806 24.4023 13.8516 24.1914 13.8516 23.9492V20.3633H15.0312V24.0547C15.0312 24.4714 14.9349 24.8372 14.7422 25.1523C14.5521 25.4648 14.2799 25.7083 13.9258 25.8828C13.5742 26.0573 13.1562 26.1445 12.6719 26.1445ZM16.3984 26V20.3633H17.5781V26H16.3984ZM18.7891 26V25.2305L21.625 21.4062V21.3359H18.8555V20.3633H23.0625V21.1289L20.2344 24.957V25.0273H23.1406V26H18.7891Z" fill="#F29915"/>
<path d="M11.4122 5.12974C11.1086 5.12974 10.8626 5.37582 10.8626 5.67936C10.8626 5.98289 11.1086 6.22897 11.4122 6.22897V5.12974ZM9.39692 4.21372C9.39692 4.51726 9.643 4.76333 9.94654 4.76333C10.2501 4.76333 10.4962 4.51726 10.4962 4.21372H9.39692ZM11.2493 1.09923H12.0636V0H11.2493V1.09923ZM6.09923 8.79385V6.32058H5V8.79385H6.09923ZM5 8.79385C5 10.0015 5.96875 10.9923 7.1781 10.9923V9.89308C6.58867 9.89308 6.09923 9.40736 6.09923 8.79385H5ZM16.3995 5.49615C16.3995 7.93095 14.4518 9.89308 12.0636 9.89308V10.9923C15.0717 10.9923 17.4987 8.52512 17.4987 5.49615H16.3995ZM11.2493 0C7.7915 0 5 2.83628 5 6.32058H6.09923C6.09923 3.43045 8.41143 1.09923 11.2493 1.09923V0ZM20.7556 12.0915V9.61827H19.6564V12.0915H20.7556ZM13.6921 14.29H18.5776V13.1908H13.6921V14.29ZM19.6564 12.0915C19.6564 12.7051 19.167 13.1908 18.5776 13.1908V14.29C19.7869 14.29 20.7556 13.2992 20.7556 12.0915H19.6564ZM16.5898 4.8417C18.3945 5.65215 19.6564 7.48437 19.6564 9.61827H20.7556C20.7556 7.04182 19.2307 4.82271 17.0401 3.83894L16.5898 4.8417ZM12.0636 1.09923C14.1037 1.09923 15.8223 2.53044 16.2801 4.46678L17.3499 4.21386C16.7795 1.80149 14.6336 0 12.0636 0V1.09923ZM16.2801 4.46678C16.358 4.79642 16.3995 5.14101 16.3995 5.49615H17.4987C17.4987 5.05528 17.4473 4.62582 17.3499 4.21386L16.2801 4.46678ZM8.56568 10.6238C9.30978 12.7554 11.3204 14.29 13.6921 14.29V13.1908C11.8094 13.1908 10.2007 11.9725 9.6035 10.2615L8.56568 10.6238ZM12.0636 9.89308H9.08459V10.9923H12.0636V9.89308ZM9.08459 9.89308H7.1781V10.9923H9.08459V9.89308ZM12.3282 4.21372C12.3282 4.71963 11.9181 5.12974 11.4122 5.12974V6.22897C12.5252 6.22897 13.4274 5.32671 13.4274 4.21372H12.3282ZM10.4962 4.21372C10.4962 3.70781 10.9063 3.29769 11.4122 3.29769V2.19846C10.2992 2.19846 9.39692 3.10072 9.39692 4.21372H10.4962ZM11.4122 3.29769C11.9181 3.29769 12.3282 3.70781 12.3282 4.21372H13.4274C13.4274 3.10072 12.5252 2.19846 11.4122 2.19846V3.29769Z" fill="white"/>
<path d="M12.1453 7.87735C12.1453 8.28209 11.8172 8.61017 11.4125 8.61017C11.0078 8.61017 10.6797 8.28209 10.6797 7.87735C10.6797 7.47262 11.0078 7.14453 11.4125 7.14453C11.8172 7.14453 12.1453 7.47262 12.1453 7.87735Z" fill="white"/>
</svg>
