<svg width="45" height="45" viewBox="0 0 45 45" fill="none" xmlns="http://www.w3.org/2000/svg">
<g clip-path="url(#clip0_914_1270)">
<path d="M12.085 15.6152C5.42136 15.6152 0 21.0365 0 27.7002C0 30.5998 1.03816 33.3772 2.93353 35.5752L0.359736 40.0792C-0.0341016 40.7684 0.615147 41.5852 1.3754 41.3572L8.4745 39.2274C9.65426 39.5976 10.8678 39.7852 12.085 39.7852C18.7486 39.7852 24.1699 34.3639 24.1699 27.7002C24.1699 21.0365 18.7486 15.6152 12.085 15.6152ZM12.085 36.0498C11.3569 36.0498 10.7666 35.4595 10.7666 34.7314C10.7666 34.0034 11.3569 33.4131 12.085 33.4131C12.813 33.4131 13.4033 34.0034 13.4033 34.7314C13.4033 35.4595 12.813 36.0498 12.085 36.0498ZM14.0822 27.5989C13.8781 27.7184 13.4033 28.057 13.4033 28.618V29.458C13.4033 30.1861 12.813 30.7764 12.085 30.7764C11.3569 30.7764 10.7666 30.1861 10.7666 29.458V28.618C10.7666 27.2825 11.5079 26.051 12.7494 25.3238C13.1528 25.0876 13.4033 24.651 13.4033 24.1847C13.4033 23.4577 12.8119 22.8663 12.085 22.8663C11.358 22.8663 10.7666 23.4577 10.7666 24.1847C10.7666 24.9127 10.1763 25.503 9.44824 25.503C8.72016 25.503 8.12988 24.9127 8.12988 24.1847C8.12988 22.0038 9.90413 20.2296 12.085 20.2296C14.2658 20.2296 16.04 22.0038 16.04 24.1847C16.04 25.5831 15.2898 26.8913 14.0822 27.5989Z" fill="url(#paint0_linear_914_1270)"/>
<path d="M42.0658 9.42451L44.6396 4.92047C45.0335 4.23132 44.3842 3.41446 43.624 3.64254L36.5249 5.7723C35.3451 5.40211 34.1316 5.21455 32.9144 5.21455C26.716 5.21455 21.5934 9.90553 20.9082 15.9238C24.4868 18.6118 26.806 22.8903 26.806 27.7006C26.806 27.708 26.8058 27.7155 26.8058 27.723C28.5993 28.7782 30.6873 29.3845 32.9144 29.3845C39.578 29.3845 44.9994 23.9632 44.9994 17.2995C44.9994 14.3999 43.9612 11.6225 42.0658 9.42451ZM37.3089 21.2545H28.5199C27.7918 21.2545 27.2015 20.6642 27.2015 19.9361C27.2015 19.2081 27.7918 18.6178 28.5199 18.6178H37.3089C38.037 18.6178 38.6273 19.2081 38.6273 19.9361C38.6273 20.6642 38.037 21.2545 37.3089 21.2545ZM37.3089 15.9811H28.5199C27.7918 15.9811 27.2015 15.3908 27.2015 14.6627C27.2015 13.9346 27.7918 13.3443 28.5199 13.3443H37.3089C38.037 13.3443 38.6273 13.9346 38.6273 14.6627C38.6273 15.3908 38.037 15.9811 37.3089 15.9811Z" fill="url(#paint1_linear_914_1270)"/>
</g>
<defs>
<linearGradient id="paint0_linear_914_1270" x1="2.10815" y1="20.5025" x2="22.73" y2="40.445" gradientUnits="userSpaceOnUse">
<stop stop-color="white" stop-opacity="0.6"/>
<stop offset="1" stop-color="white" stop-opacity="0.3"/>
</linearGradient>
<linearGradient id="paint1_linear_914_1270" x1="23.0095" y1="8.49075" x2="43.6289" y2="28.3661" gradientUnits="userSpaceOnUse">
<stop stop-color="white" stop-opacity="0.6"/>
<stop offset="1" stop-color="white" stop-opacity="0.3"/>
</linearGradient>
<clipPath id="clip0_914_1270">
<rect width="45" height="45" fill="white"/>
</clipPath>
</defs>
</svg>
