<svg width="47" height="30" viewBox="0 0 47 30" fill="none" xmlns="http://www.w3.org/2000/svg">
<path d="M15.0905 16.4385C11.8437 16.4385 9.12623 18.7475 8.49414 21.8099H21.6869C21.0548 18.7476 18.3373 16.4385 15.0905 16.4385Z" fill="url(#paint0_linear_914_1301)"/>
<path d="M15.0906 13.6362C16.5968 13.6362 17.8178 12.4151 17.8178 10.9089C17.8178 9.40268 16.5968 8.18164 15.0906 8.18164C13.5843 8.18164 12.3633 9.40268 12.3633 10.9089C12.3633 12.4151 13.5843 13.6362 15.0906 13.6362Z" fill="url(#paint1_linear_914_1301)"/>
<path d="M42.4545 0H4.09091C1.83518 0 0 1.83518 0 4.09091V25.9091C0 28.1648 1.83518 30 4.09091 30H42.4545C44.7103 30 46.5455 28.1648 46.5455 25.9091V4.09091C46.5455 1.83518 44.7103 0 42.4545 0ZM23.1896 24.5365H6.99218C6.23909 24.5365 5.62855 23.9259 5.62855 23.1728C5.62855 19.3875 7.86309 16.1148 11.082 14.603C10.1854 13.6306 9.63636 12.333 9.63636 10.9091C9.63636 7.90145 12.0833 5.45455 15.0909 5.45455C18.0985 5.45455 20.5455 7.90145 20.5455 10.9091C20.5455 12.333 19.9965 13.6306 19.0997 14.603C22.3187 16.1148 24.5532 19.3875 24.5532 23.1728C24.5533 23.926 23.9427 24.5365 23.1896 24.5365ZM34.1818 24.5455H28.7273C27.9742 24.5455 27.3636 23.9349 27.3636 23.1818C27.3636 22.4287 27.9742 21.8182 28.7273 21.8182H34.1818C34.9349 21.8182 35.5455 22.4287 35.5455 23.1818C35.5455 23.9349 34.9349 24.5455 34.1818 24.5455ZM39.6364 19.0909H28.7273C27.9742 19.0909 27.3636 18.4804 27.3636 17.7273C27.3636 16.9742 27.9742 16.3636 28.7273 16.3636H39.6364C40.3895 16.3636 41 16.9742 41 17.7273C41 18.4804 40.3895 19.0909 39.6364 19.0909ZM39.6364 13.6364H28.7273C27.9742 13.6364 27.3636 13.0258 27.3636 12.2727C27.3636 11.5196 27.9742 10.9091 28.7273 10.9091H39.6364C40.3895 10.9091 41 11.5196 41 12.2727C41 13.0258 40.3895 13.6364 39.6364 13.6364ZM39.6364 8.18182H28.7273C27.9742 8.18182 27.3636 7.57127 27.3636 6.81818C27.3636 6.06509 27.9742 5.45455 28.7273 5.45455H39.6364C40.3895 5.45455 41 6.06509 41 6.81818C41 7.57127 40.3895 8.18182 39.6364 8.18182Z" fill="url(#paint2_linear_914_1301)"/>
<defs>
<linearGradient id="paint0_linear_914_1301" x1="9.64484" y1="17.4567" x2="12.5811" y2="24.8957" gradientUnits="userSpaceOnUse">
<stop stop-color="white" stop-opacity="0.6"/>
<stop offset="1" stop-color="white" stop-opacity="0.3"/>
</linearGradient>
<linearGradient id="paint1_linear_914_1301" x1="12.839" y1="9.21565" x2="17.2024" y2="13.7165" gradientUnits="userSpaceOnUse">
<stop stop-color="white" stop-opacity="0.6"/>
<stop offset="1" stop-color="white" stop-opacity="0.3"/>
</linearGradient>
<linearGradient id="paint2_linear_914_1301" x1="4.0598" y1="5.68703" x2="25.6394" y2="40.2234" gradientUnits="userSpaceOnUse">
<stop stop-color="white" stop-opacity="0.6"/>
<stop offset="1" stop-color="white" stop-opacity="0.3"/>
</linearGradient>
</defs>
</svg>
