<svg width="48" height="35" viewBox="0 0 48 35" fill="none" xmlns="http://www.w3.org/2000/svg">
<path d="M27.27 20.9143C25.3805 22.7999 22.318 22.7999 20.4285 20.9143C18.5395 19.0288 18.5395 15.9715 20.4285 14.086C22.318 12.2005 25.3805 12.2005 27.27 14.086C29.159 15.9715 29.159 19.0288 27.27 20.9143Z" fill="url(#paint0_linear_914_1276)"/>
<path d="M33.8776 28.231C33.2882 28.231 32.6989 28.006 32.2502 27.5556C31.3528 26.657 31.3545 25.201 32.2531 24.3041C34.074 22.4866 35.0767 20.0704 35.0767 17.5008C35.0767 14.9312 34.074 12.515 32.2531 10.6975C31.3545 9.80004 31.3528 8.34464 32.2502 7.44547C33.147 6.54688 34.603 6.54514 35.5015 7.44256C38.1932 10.129 39.6753 13.7007 39.6753 17.5008C39.6753 21.3003 38.1932 24.8726 35.5015 27.5591C35.0528 28.0072 34.4652 28.231 33.8776 28.231Z" fill="url(#paint1_linear_914_1276)"/>
<path d="M39.0788 34.9997C38.4894 34.9997 37.9 34.7748 37.4513 34.3249C36.5539 33.4257 36.5557 31.9703 37.4542 31.0729C41.0869 27.4472 43.0881 22.627 43.0881 17.4999C43.0881 12.3729 41.0869 7.5527 37.4542 3.92696C36.5557 3.02954 36.5539 1.57413 37.4513 0.674959C38.3487 -0.223628 39.8041 -0.225372 40.7027 0.672052C45.206 5.16673 47.6867 11.143 47.6861 17.4999C47.6861 23.8569 45.206 29.8337 40.7027 34.3284C40.254 34.7759 39.6664 34.9997 39.0788 34.9997Z" fill="url(#paint2_linear_914_1276)"/>
<path d="M13.8081 28.2302C13.2204 28.2302 12.6328 28.0064 12.1835 27.5583C9.49189 24.8718 8.00977 21.2996 8.00977 17.5C8.00977 13.6999 9.49189 10.1283 12.1835 7.4418C13.0821 6.54438 14.5381 6.54554 15.4349 7.44471C16.3323 8.34329 16.3306 9.79929 15.432 10.6967C13.611 12.5142 12.6084 14.9304 12.6084 17.5C12.6084 20.0697 13.611 22.4859 15.432 24.3034C16.3306 25.2002 16.3323 26.6562 15.4349 27.5548C14.9862 28.0047 14.3968 28.2302 13.8081 28.2302Z" fill="url(#paint3_linear_914_1276)"/>
<path d="M8.60793 35C8.01973 35 7.43212 34.7762 6.98341 34.3281C2.48008 29.8334 0 23.8572 0 17.5002C0 11.1427 2.48008 5.16644 6.98341 0.671762C7.88198 -0.225082 9.33795 -0.223919 10.2348 0.675249C11.1322 1.57384 11.1304 3.02925 10.2319 3.92667C6.59922 7.5524 4.59807 12.3726 4.59807 17.4996C4.59807 22.6267 6.59922 27.4475 10.2319 31.0732C11.1304 31.9706 11.1322 33.426 10.2348 34.3252C9.78608 34.7751 9.19671 35 8.60793 35Z" fill="url(#paint4_linear_914_1276)"/>
<defs>
<linearGradient id="paint0_linear_914_1276" x1="19.8556" y1="14.5025" x2="27.5799" y2="22.4855" gradientUnits="userSpaceOnUse">
<stop stop-color="white" stop-opacity="0.6"/>
<stop offset="1" stop-color="white" stop-opacity="0.3"/>
</linearGradient>
<linearGradient id="paint1_linear_914_1276" x1="32.2844" y1="10.8387" x2="43.8951" y2="15.3576" gradientUnits="userSpaceOnUse">
<stop stop-color="white" stop-opacity="0.6"/>
<stop offset="1" stop-color="white" stop-opacity="0.3"/>
</linearGradient>
<linearGradient id="paint2_linear_914_1276" x1="37.7306" y1="6.63481" x2="54.0526" y2="11.8815" gradientUnits="userSpaceOnUse">
<stop stop-color="white" stop-opacity="0.6"/>
<stop offset="1" stop-color="white" stop-opacity="0.3"/>
</linearGradient>
<linearGradient id="paint3_linear_914_1276" x1="8.71602" y1="10.8378" x2="20.3267" y2="15.3566" gradientUnits="userSpaceOnUse">
<stop stop-color="white" stop-opacity="0.6"/>
<stop offset="1" stop-color="white" stop-opacity="0.3"/>
</linearGradient>
<linearGradient id="paint4_linear_914_1276" x1="0.951317" y1="6.63487" x2="17.2733" y2="11.8815" gradientUnits="userSpaceOnUse">
<stop stop-color="white" stop-opacity="0.6"/>
<stop offset="1" stop-color="white" stop-opacity="0.3"/>
</linearGradient>
</defs>
</svg>
