<svg width="19" height="19" viewBox="0 0 19 19" fill="none" xmlns="http://www.w3.org/2000/svg">
<path d="M9.5 0C4.26194 0 0 4.26194 0 9.5C0 11.3264 0.511813 13.0803 1.482 14.592L0.04275 18.1854C-0.045125 18.4062 0.00593749 18.658 0.174562 18.8266C0.287375 18.9394 0.439375 19 0.59375 19C0.668562 19 0.742187 18.9857 0.814625 18.9572L4.408 17.518C5.91969 18.4882 7.67362 19 9.5 19C14.7381 19 19 14.7381 19 9.5C19 4.26194 14.7381 0 9.5 0ZM9.5 17.8125C7.80662 17.8125 6.18569 17.3114 4.81412 16.3626C4.71437 16.2925 4.59562 16.2569 4.47687 16.2569C4.40206 16.2569 4.32725 16.2711 4.256 16.2996L1.66012 17.3399L2.70037 14.744C2.774 14.5587 2.75025 14.3486 2.63744 14.1859C1.68862 12.8143 1.1875 11.1934 1.1875 9.5C1.1875 4.91625 4.91625 1.1875 9.5 1.1875C14.0837 1.1875 17.8125 4.91625 17.8125 9.5C17.8125 14.0837 14.0837 17.8125 9.5 17.8125Z" fill="black"/>
</svg>
