<svg width="25" height="25" viewBox="0 0 25 25" fill="none" xmlns="http://www.w3.org/2000/svg">
<g clip-path="url(#clip0_857_2119)">
<path d="M4.88302 15.7833H7.8126C8.35193 15.7833 8.78912 15.3461 8.78912 14.8067C8.78912 14.2674 8.35193 13.8302 7.8126 13.8302H4.88302C4.34369 13.8302 3.90649 14.2674 3.90649 14.8067C3.90649 15.3461 4.34369 15.7833 4.88302 15.7833Z" fill="#BFBFBF"/>
<path d="M4.88302 11.8777H7.8126C8.35193 11.8777 8.78912 11.4405 8.78912 10.9012C8.78912 10.3619 8.35193 9.92469 7.8126 9.92469H4.88302C4.34369 9.92469 3.90649 10.3619 3.90649 10.9012C3.90649 11.4405 4.34369 11.8777 4.88302 11.8777Z" fill="#BFBFBF"/>
<path d="M10.6162 14.8069C10.6162 15.3462 11.0534 15.7834 11.5927 15.7834C13.6347 15.7834 15.5544 14.9882 16.9983 13.5443L24.1397 6.40232C25.2845 5.25749 25.2847 3.40429 24.1397 2.25926C22.9975 1.11702 21.1389 1.11702 19.9966 2.25926L12.8553 9.40128C11.4114 10.8452 10.6162 12.7649 10.6162 14.8069ZM21.3777 3.64032C21.7584 3.25957 22.378 3.25957 22.7587 3.64032C23.1403 4.02184 23.1404 4.63964 22.7587 5.02132L15.6173 12.1633C14.801 12.9797 13.7802 13.5175 12.6705 13.7291C12.8821 12.6194 13.4199 11.5987 14.2362 10.7823L21.3777 3.64032Z" fill="#BFBFBF"/>
<path d="M2.92958 23.5955C3.65103 23.5955 4.34447 23.3307 4.88224 22.8499L6.23214 21.6424H16.2103C18.9027 21.6424 21.093 19.4521 21.093 16.7598V14.5693C21.093 14.03 20.6558 13.5928 20.1164 13.5928C19.5771 13.5928 19.1399 14.03 19.1399 14.5693V16.7598C19.1399 18.3751 17.8257 19.6894 16.2103 19.6894H5.85915C5.61893 19.6894 5.38715 19.7779 5.20811 19.938L3.58033 21.3941C3.40119 21.5542 3.1701 21.6424 2.92958 21.6424C2.39112 21.6424 1.95305 21.2043 1.95305 20.6659V8.94757C1.95305 7.33221 3.26726 6.018 4.88263 6.018H13.0732C13.6125 6.018 14.0497 5.58081 14.0497 5.04147C14.0497 4.50214 13.6125 4.06495 13.0732 4.06495H4.88263C2.1903 4.06495 0 6.25529 0 8.94757V20.6659C0 22.2813 1.31421 23.5955 2.92958 23.5955Z" fill="#BFBFBF"/>
</g>
<defs>
<clipPath id="clip0_857_2119">
<rect width="24.96" height="24.96" fill="white" transform="scale(1.00156)"/>
</clipPath>
</defs>
</svg>
